<svg xmlns="http://www.w3.org/2000/svg" width="1563" height="1563" viewBox="0 0 1563 1563" version="1.1">
	<path d="M 443.347 717.095 C 430.467 719.247, 420.266 725.469, 415.500 734.079 C 412.823 738.917, 412.501 740.415, 412.512 748 C 412.527 758.472, 414.651 763.097, 422.180 769.048 C 428.346 773.922, 430.755 775.230, 442.500 780.076 C 452.609 784.248, 455.532 787.031, 454.428 791.431 C 453.486 795.184, 448.140 797.428, 442.110 796.602 C 436.961 795.896, 428.016 792.012, 423.359 788.460 C 421.585 787.107, 419.766 786.002, 419.317 786.003 C 418.868 786.005, 415.506 791.068, 411.847 797.253 L 405.194 808.500 407.326 810.808 C 410.219 813.941, 420.287 818.620, 428.088 820.459 C 436.274 822.389, 453.434 822.403, 462.476 820.488 C 481.036 816.556, 491 805.431, 491 788.641 C 491 772.025, 482.729 763.491, 458.826 755.441 C 447.795 751.726, 445 749.902, 445 746.416 C 445 739.339, 458.207 738.253, 472.786 744.130 C 475.693 745.302, 478.229 746.090, 478.420 745.881 C 478.612 745.671, 480.878 741.283, 483.455 736.129 L 488.142 726.758 499.647 748.129 C 514.996 776.638, 526.709 798.498, 532.634 809.695 C 538.189 820.192, 537.190 819.718, 552.624 819.184 L 561.748 818.869 573.029 793.434 C 579.234 779.445, 584.415 768, 584.543 768 C 584.671 768, 589.859 779.449, 596.072 793.443 L 607.369 818.885 618.787 819.193 C 625.067 819.362, 630.537 819.275, 630.944 819 C 631.650 818.522, 640.863 801.541, 666.483 753.500 C 672.936 741.400, 679.769 728.678, 681.668 725.229 L 685.121 718.958 665.006 719.229 L 644.891 719.500 632.940 745.922 C 626.368 760.453, 620.852 772.481, 620.683 772.650 C 620.515 772.819, 615.004 760.817, 608.438 745.979 L 596.500 719.002 584.500 719.013 L 572.500 719.024 560.602 746.031 C 554.059 760.885, 548.577 772.911, 548.422 772.755 C 548.266 772.600, 542.759 760.553, 536.183 745.986 L 524.227 719.500 504.137 719.229 C 487.062 718.999, 484.129 719.173, 484.595 720.387 C 485.064 721.608, 484.516 721.598, 480.822 720.319 C 469.539 716.411, 454.949 715.156, 443.347 717.095 M 719.276 717.511 C 705.246 720.560, 689.971 732.073, 683.266 744.652 C 674.670 760.781, 674.994 780.430, 684.105 795.564 C 688.515 802.888, 698.533 812.231, 706.039 816.020 C 714.609 820.346, 722.088 822.002, 732.960 821.983 C 744.778 821.961, 754.137 820.042, 762.496 815.927 C 769.502 812.479, 779.452 804.039, 782.296 799.133 L 784.092 796.036 771.565 789.796 L 759.039 783.556 755.269 787.229 C 746.303 795.966, 731.364 797.318, 720.671 790.359 C 716.571 787.691, 713.059 781.443, 713.022 776.750 L 713 774 749.650 774 L 786.299 774 785.672 765.161 C 784.554 749.405, 780.217 739.279, 770.757 730.332 C 758.160 718.418, 738.098 713.422, 719.276 717.511 M 850.500 717.402 C 843.549 719.606, 838.270 722.825, 833.056 728.040 L 828 733.095 828 726.048 L 828 719 810.500 719 L 793 719 793 768.930 L 793 818.861 795.250 819.180 C 796.487 819.356, 804.362 819.365, 812.750 819.201 L 828 818.902 828 791.326 L 828 763.750 830.660 757.824 C 834.354 749.592, 839.571 746.474, 849.500 746.563 C 854.430 746.607, 857.937 747.270, 861.359 748.805 C 864.031 750.003, 866.513 750.801, 866.874 750.578 C 867.235 750.355, 869.073 746.984, 870.958 743.086 C 872.844 739.189, 874.657 736, 874.988 736 C 875.320 736, 882.730 749.388, 891.456 765.750 C 900.181 782.112, 910.205 800.788, 913.731 807.250 L 920.140 819 932.008 819 L 943.875 819 950.816 806.250 C 954.633 799.237, 963.272 783.150, 970.012 770.500 C 983.135 745.871, 987.042 738.581, 993.130 727.377 C 995.258 723.459, 997 719.972, 997 719.627 C 997 719.282, 987.868 719, 976.708 719 L 956.415 719 950.312 732.750 C 946.955 740.313, 941.574 752.457, 938.354 759.737 C 935.134 767.017, 932.275 772.968, 932 772.962 C 931.725 772.955, 926.114 760.811, 919.532 745.975 L 907.564 719 891.331 719 C 880.127 719, 873.313 718.535, 869.339 717.500 C 862.458 715.708, 855.950 715.674, 850.500 717.402 M 1032.250 717.448 C 1013.531 721.721, 997.420 736.295, 991.921 753.928 C 989.307 762.312, 989.111 775.412, 991.478 783.619 C 994.953 795.673, 1003.117 806.241, 1014.772 813.774 C 1024.569 820.106, 1030.307 821.502, 1046.500 821.490 C 1063.706 821.478, 1070.783 819.533, 1082.229 811.674 C 1087.150 808.295, 1096 798.649, 1096 796.665 C 1096 796.308, 1090.599 793.308, 1083.997 789.999 L 1071.994 783.982 1066.582 788.390 C 1058.341 795.103, 1048.595 796.691, 1038.598 792.951 C 1032.325 790.604, 1027.520 785.780, 1026.521 780.824 C 1026.152 778.996, 1025.629 776.712, 1025.358 775.750 C 1024.895 774.106, 1027.085 774, 1061.433 774 L 1098 774 1098 766.210 C 1098 743.351, 1085.168 725.471, 1064.072 718.934 C 1055.428 716.256, 1040.522 715.559, 1032.250 717.448 M 723.500 740.412 C 719.822 742.046, 716.486 745.568, 715.067 749.315 C 712.850 755.166, 712.328 755, 733 755 C 746.971 755, 752 754.687, 752 753.816 C 752 753.164, 751.057 750.683, 749.904 748.302 C 746.877 742.049, 741.263 738.988, 732.912 739.039 C 729.385 739.061, 725.150 739.678, 723.500 740.412 M 1035.457 740.808 C 1030.781 743.744, 1027 748.781, 1027 752.077 L 1027 755 1045.500 755 L 1064 755 1064 752.648 C 1064 749.749, 1060.450 744.388, 1056.682 741.596 C 1052.605 738.575, 1039.773 738.099, 1035.457 740.808 M 1119.500 779.879 C 1110.894 783.827, 1106.633 790.490, 1106.633 800 C 1106.633 807.109, 1108.066 810.775, 1112.657 815.414 C 1126.535 829.435, 1150.200 819.719, 1150.200 800 C 1150.200 784, 1133.861 773.291, 1119.500 779.879" stroke="none" fill="#000000" fill-rule="evenodd"/>
</svg>